<svg xmlns="http://www.w3.org/2000/svg" viewBox="0 0 800 1000" width="800" height="1000">
  <defs>
    <radialGradient id="bg" cx="50%" cy="45%" r="80%">
      <stop offset="0%" stop-color="#2a3a28"/>
      <stop offset="60%" stop-color="#1e2d1c"/>
      <stop offset="100%" stop-color="#162214"/>
    </radialGradient>
    <radialGradient id="glow1" cx="50%" cy="50%" r="50%">
      <stop offset="0%" stop-color="#8aad6a" stop-opacity="0.45"/>
      <stop offset="100%" stop-color="#5D713F" stop-opacity="0"/>
    </radialGradient>
    <radialGradient id="glow2" cx="50%" cy="50%" r="50%">
      <stop offset="0%" stop-color="#6d9a4a" stop-opacity="0.3"/>
      <stop offset="100%" stop-color="#46633A" stop-opacity="0"/>
    </radialGradient>
    <radialGradient id="nodeGlow" cx="50%" cy="50%" r="50%">
      <stop offset="0%" stop-color="#a3c97a" stop-opacity="0.7"/>
      <stop offset="100%" stop-color="#5D713F" stop-opacity="0"/>
    </radialGradient>
    <filter id="blur"><feGaussianBlur stdDeviation="3"/></filter>
    <filter id="softBlur"><feGaussianBlur stdDeviation="6"/></filter>
    <filter id="wideBlur"><feGaussianBlur stdDeviation="12"/></filter>
  </defs>

  <!-- Background -->
  <rect width="800" height="1000" fill="url(#bg)"/>

  <!-- Wilderness: organic terrain shapes -->
  <path d="M0 850 Q100 780 200 820 Q350 870 450 800 Q550 730 650 790 Q750 840 800 800 L800 1000 L0 1000Z" fill="#1e3518" opacity="0.5"/>
  <path d="M0 900 Q150 840 300 880 Q450 920 550 860 Q700 800 800 870 L800 1000 L0 1000Z" fill="#243d1d" opacity="0.4"/>
  <path d="M0 950 Q200 910 400 940 Q600 970 800 930 L800 1000 L0 1000Z" fill="#2b4522" opacity="0.35"/>

  <!-- Wilderness: tree silhouettes -->
  <g opacity="0.15" fill="#3d6632">
    <!-- Pine tree left -->
    <polygon points="80,750 95,680 100,710 110,650 120,700 130,660 140,720 145,670 155,750"/>
    <rect x="112" y="750" width="8" height="25"/>
    <!-- Pine tree right -->
    <polygon points="680,770 695,700 700,730 710,670 720,720 730,680 740,740 745,690 755,770"/>
    <rect x="712" y="770" width="8" height="25"/>
    <!-- Broad tree center-right -->
    <ellipse cx="620" cy="760" rx="35" ry="25"/>
    <rect x="617" y="780" width="6" height="20"/>
    <!-- Small tree left -->
    <polygon points="200,790 215,740 220,760 230,720 240,770 245,730 255,790"/>
    <rect x="222" y="790" width="6" height="15"/>
  </g>

  <!-- Wilderness: leaf veins / organic network overlay -->
  <g stroke="#5D713F" stroke-opacity="0.06" stroke-width="1" fill="none">
    <path d="M0 200 Q200 180 400 250 Q600 320 800 200"/>
    <path d="M0 400 Q150 350 350 420 Q550 490 800 380"/>
    <path d="M100 0 Q120 200 200 400 Q280 600 150 800"/>
    <path d="M700 0 Q680 250 600 450 Q520 650 700 900"/>
    <path d="M400 0 Q380 300 420 500 Q460 700 400 1000"/>
  </g>

  <!-- Ambient light -->
  <ellipse cx="400" cy="380" rx="320" ry="280" fill="url(#glow1)" filter="url(#wideBlur)"/>
  <ellipse cx="180" cy="550" rx="180" ry="180" fill="url(#glow2)" filter="url(#softBlur)"/>
  <ellipse cx="620" cy="350" rx="160" ry="160" fill="url(#glow2)" filter="url(#softBlur)"/>

  <!-- Neural network connections - Layer 0 to Layer 1 -->
  <g stroke="#8aad6a" stroke-opacity="0.15" stroke-width="1">
    <line x1="80" y1="300" x2="200" y2="200"/>
    <line x1="80" y1="300" x2="200" y2="350"/>
    <line x1="80" y1="450" x2="200" y2="350"/>
    <line x1="80" y1="450" x2="200" y2="500"/>
    <line x1="80" y1="600" x2="200" y2="500"/>
    <line x1="80" y1="600" x2="200" y2="650"/>
  </g>

  <!-- Neural network connections - Layer 1 to Layer 2 -->
  <g stroke="#8aad6a" stroke-opacity="0.2" stroke-width="1.5">
    <line x1="200" y1="200" x2="400" y2="250"/>
    <line x1="200" y1="200" x2="400" y2="380"/>
    <line x1="200" y1="350" x2="400" y2="250"/>
    <line x1="200" y1="350" x2="400" y2="380"/>
    <line x1="200" y1="350" x2="400" y2="500"/>
    <line x1="200" y1="500" x2="400" y2="380"/>
    <line x1="200" y1="500" x2="400" y2="500"/>
    <line x1="200" y1="500" x2="400" y2="620"/>
    <line x1="200" y1="650" x2="400" y2="500"/>
    <line x1="200" y1="650" x2="400" y2="620"/>
  </g>

  <!-- Neural network connections - Layer 2 to Layer 3 -->
  <g stroke="#8aad6a" stroke-opacity="0.2" stroke-width="1.5">
    <line x1="400" y1="250" x2="600" y2="300"/>
    <line x1="400" y1="250" x2="600" y2="420"/>
    <line x1="400" y1="380" x2="600" y2="300"/>
    <line x1="400" y1="380" x2="600" y2="420"/>
    <line x1="400" y1="380" x2="600" y2="540"/>
    <line x1="400" y1="500" x2="600" y2="420"/>
    <line x1="400" y1="500" x2="600" y2="540"/>
    <line x1="400" y1="500" x2="600" y2="650"/>
    <line x1="400" y1="620" x2="600" y2="540"/>
    <line x1="400" y1="620" x2="600" y2="650"/>
  </g>

  <!-- Neural network connections - Layer 3 to Layer 4 -->
  <g stroke="#8aad6a" stroke-opacity="0.15" stroke-width="1">
    <line x1="600" y1="300" x2="720" y2="370"/>
    <line x1="600" y1="420" x2="720" y2="370"/>
    <line x1="600" y1="420" x2="720" y2="520"/>
    <line x1="600" y1="540" x2="720" y2="520"/>
    <line x1="600" y1="540" x2="720" y2="650"/>
    <line x1="600" y1="650" x2="720" y2="650"/>
  </g>

  <!-- Highlighted active path -->
  <g stroke="#a3c97a" stroke-opacity="0.65" stroke-width="2.5" filter="url(#blur)">
    <line x1="80" y1="450" x2="200" y2="350"/>
    <line x1="200" y1="350" x2="400" y2="380"/>
    <line x1="400" y1="380" x2="600" y2="420"/>
    <line x1="600" y1="420" x2="720" y2="520"/>
    <line x1="200" y1="500" x2="400" y2="500"/>
    <line x1="400" y1="500" x2="600" y2="540"/>
    <line x1="600" y1="540" x2="720" y2="520"/>
  </g>
  <g stroke="#a3c97a" stroke-opacity="0.4" stroke-width="1.5">
    <line x1="80" y1="450" x2="200" y2="350"/>
    <line x1="200" y1="350" x2="400" y2="380"/>
    <line x1="400" y1="380" x2="600" y2="420"/>
    <line x1="600" y1="420" x2="720" y2="520"/>
    <line x1="200" y1="500" x2="400" y2="500"/>
    <line x1="400" y1="500" x2="600" y2="540"/>
    <line x1="600" y1="540" x2="720" y2="520"/>
  </g>

  <!-- Node glows -->
  <ellipse cx="400" cy="380" rx="30" ry="30" fill="url(#nodeGlow)" filter="url(#blur)"/>
  <ellipse cx="600" cy="420" rx="30" ry="30" fill="url(#nodeGlow)" filter="url(#blur)"/>
  <ellipse cx="200" cy="350" rx="25" ry="25" fill="url(#nodeGlow)" filter="url(#blur)"/>
  <ellipse cx="720" cy="520" rx="25" ry="25" fill="url(#nodeGlow)" filter="url(#blur)"/>

  <!-- Layer 0 nodes (input) -->
  <circle cx="80" cy="300" r="9" fill="#2a3a28" stroke="#6d9a4a" stroke-width="1.5"/>
  <circle cx="80" cy="300" r="3.5" fill="#6d9a4a" fill-opacity="0.4"/>
  <circle cx="80" cy="450" r="11" fill="#2a3a28" stroke="#8aad6a" stroke-width="2"/>
  <circle cx="80" cy="450" r="5" fill="#8aad6a" fill-opacity="0.5"/>
  <circle cx="80" cy="600" r="9" fill="#2a3a28" stroke="#6d9a4a" stroke-width="1.5"/>
  <circle cx="80" cy="600" r="3.5" fill="#6d9a4a" fill-opacity="0.4"/>

  <!-- Layer 1 nodes -->
  <circle cx="200" cy="200" r="11" fill="#2a3a28" stroke="#8aad6a" stroke-width="2"/>
  <circle cx="200" cy="200" r="4.5" fill="#8aad6a" fill-opacity="0.35"/>
  <circle cx="200" cy="350" r="14" fill="#2a3a28" stroke="#a3c97a" stroke-width="2.5"/>
  <circle cx="200" cy="350" r="6" fill="#a3c97a" fill-opacity="0.45"/>
  <circle cx="200" cy="500" r="14" fill="#2a3a28" stroke="#a3c97a" stroke-width="2.5"/>
  <circle cx="200" cy="500" r="6" fill="#a3c97a" fill-opacity="0.45"/>
  <circle cx="200" cy="650" r="11" fill="#2a3a28" stroke="#8aad6a" stroke-width="2"/>
  <circle cx="200" cy="650" r="4.5" fill="#8aad6a" fill-opacity="0.35"/>

  <!-- Layer 2 nodes -->
  <circle cx="400" cy="250" r="12" fill="#2a3a28" stroke="#8aad6a" stroke-width="2"/>
  <circle cx="400" cy="250" r="5" fill="#8aad6a" fill-opacity="0.4"/>
  <circle cx="400" cy="380" r="17" fill="#46633A" fill-opacity="0.35" stroke="#a3c97a" stroke-width="3"/>
  <circle cx="400" cy="380" r="7" fill="#a3c97a" fill-opacity="0.55"/>
  <circle cx="400" cy="500" r="14" fill="#46633A" fill-opacity="0.25" stroke="#a3c97a" stroke-width="2.5"/>
  <circle cx="400" cy="500" r="6" fill="#a3c97a" fill-opacity="0.45"/>
  <circle cx="400" cy="620" r="12" fill="#2a3a28" stroke="#8aad6a" stroke-width="2"/>
  <circle cx="400" cy="620" r="5" fill="#8aad6a" fill-opacity="0.4"/>

  <!-- Layer 3 nodes -->
  <circle cx="600" cy="300" r="12" fill="#2a3a28" stroke="#8aad6a" stroke-width="2"/>
  <circle cx="600" cy="300" r="5" fill="#8aad6a" fill-opacity="0.4"/>
  <circle cx="600" cy="420" r="17" fill="#46633A" fill-opacity="0.35" stroke="#a3c97a" stroke-width="3"/>
  <circle cx="600" cy="420" r="7" fill="#a3c97a" fill-opacity="0.55"/>
  <circle cx="600" cy="540" r="14" fill="#46633A" fill-opacity="0.25" stroke="#a3c97a" stroke-width="2.5"/>
  <circle cx="600" cy="540" r="6" fill="#a3c97a" fill-opacity="0.45"/>
  <circle cx="600" cy="650" r="12" fill="#2a3a28" stroke="#8aad6a" stroke-width="2"/>
  <circle cx="600" cy="650" r="5" fill="#8aad6a" fill-opacity="0.4"/>

  <!-- Layer 4 nodes (output) -->
  <circle cx="720" cy="370" r="10" fill="#2a3a28" stroke="#6d9a4a" stroke-width="1.5"/>
  <circle cx="720" cy="370" r="4" fill="#6d9a4a" fill-opacity="0.4"/>
  <circle cx="720" cy="520" r="15" fill="#46633A" fill-opacity="0.3" stroke="#a3c97a" stroke-width="2.5"/>
  <circle cx="720" cy="520" r="6" fill="#a3c97a" fill-opacity="0.5"/>
  <circle cx="720" cy="650" r="10" fill="#2a3a28" stroke="#6d9a4a" stroke-width="1.5"/>
  <circle cx="720" cy="650" r="4" fill="#6d9a4a" fill-opacity="0.4"/>

  <!-- Floating particles -->
  <circle cx="120" cy="260" r="2.5" fill="#a3c97a" fill-opacity="0.4"/>
  <circle cx="300" cy="310" r="2" fill="#8aad6a" fill-opacity="0.35"/>
  <circle cx="500" cy="340" r="2.5" fill="#a3c97a" fill-opacity="0.4"/>
  <circle cx="500" cy="580" r="2" fill="#8aad6a" fill-opacity="0.3"/>
  <circle cx="150" cy="430" r="2" fill="#8aad6a" fill-opacity="0.3"/>
  <circle cx="660" cy="480" r="2.5" fill="#a3c97a" fill-opacity="0.35"/>
  <circle cx="350" cy="160" r="2" fill="#8aad6a" fill-opacity="0.25"/>
  <circle cx="450" cy="700" r="2" fill="#8aad6a" fill-opacity="0.25"/>
  <circle cx="300" cy="570" r="1.5" fill="#a3c97a" fill-opacity="0.3"/>
  <circle cx="680" cy="260" r="1.5" fill="#8aad6a" fill-opacity="0.25"/>

  <!-- Wilderness: small leaf shapes scattered -->
  <g fill="#5D713F" opacity="0.1">
    <path d="M130 140 Q140 120 150 140 Q140 135 130 140Z"/>
    <path d="M660 180 Q670 160 680 180 Q670 175 660 180Z"/>
    <path d="M350 80 Q360 60 370 80 Q360 75 350 80Z"/>
    <path d="M550 720 Q560 700 570 720 Q560 715 550 720Z"/>
    <path d="M100 700 Q110 680 120 700 Q110 695 100 700Z"/>
  </g>

  <!-- Subtle text -->
  <text x="50" y="120" fill="#8aad6a" fill-opacity="0.08" font-family="monospace" font-size="13">PREDICT  CLASSIFY  TRAIN  INFER</text>
  <text x="350" y="90" fill="#8aad6a" fill-opacity="0.06" font-family="monospace" font-size="11">NEURAL NETWORK · DEEP LEARNING</text>
</svg>